<svg height="512pt" viewBox="-13 0 511 512" width="512pt" xmlns="http://www.w3.org/2000/svg"><path d="m442.171875 113.992188h-229.324219c-4.125 0-7.46875 3.347656-7.46875 7.472656v363.144531c0 15.105469 12.285156 27.390625 27.386719 27.390625h189.484375c15.105469 0 27.390625-12.285156 27.390625-27.390625v-363.144531c0-4.125-3.34375-7.472656-7.46875-7.472656zm0 0" fill="#ffd039"/><path d="m442.171875 113.992188h-37.351563c4.125 0 7.472657 3.347656 7.472657 7.472656v363.144531c0 15.105469-12.289063 27.390625-27.390625 27.390625h37.347656c15.105469 0 27.390625-12.285156 27.390625-27.390625v-363.144531c0-4.125-3.34375-7.472656-7.46875-7.472656zm0 0" fill="#ffae47"/><path d="m205.378906 209.222656h244.261719v207.550782h-244.261719zm0 0" fill="#f9f1ef"/><path d="m412.292969 209.222656h37.347656v207.550782h-37.347656zm0 0" fill="#ccc"/><path d="m390.296875 291.941406h-125.574219c-4.125 0-7.472656-3.34375-7.472656-7.46875s3.347656-7.46875 7.472656-7.46875h125.574219c4.125 0 7.46875 3.34375 7.46875 7.46875s-3.34375 7.46875-7.46875 7.46875zm0 0" fill="#494949"/><path d="m390.296875 342.761719h-125.574219c-4.125 0-7.472656-3.34375-7.472656-7.46875s3.347656-7.46875 7.472656-7.46875h125.574219c4.125 0 7.46875 3.34375 7.46875 7.46875s-3.34375 7.46875-7.46875 7.46875zm0 0" fill="#494949"/><path d="m447.464844 0h-239.910156c-4.125 0-7.46875 3.34375-7.46875 7.46875v35.058594c0 4.125 3.34375 7.46875 7.46875 7.46875h239.910156c4.125 0 7.46875-3.34375 7.46875-7.46875v-35.058594c0-4.125-3.34375-7.46875-7.46875-7.46875zm0 0" fill="#992228"/><path d="m447.464844 0h-29.882813v49.996094h29.882813c4.125 0 7.46875-3.34375 7.46875-7.46875v-35.058594c0-4.125-3.34375-7.46875-7.46875-7.46875zm0 0" fill="#721c28"/><path d="m477.679688 35.058594h-300.339844c-4.128906 0-7.472656 3.34375-7.472656 7.46875v78.9375c0 4.125 3.34375 7.46875 7.472656 7.46875h300.339844c4.125 0 7.46875-3.34375 7.46875-7.46875v-78.9375c0-4.125-3.34375-7.46875-7.46875-7.46875zm0 0" fill="#e93234"/><path d="m477.679688 35.058594h-29.878907v93.875h29.878907c4.125 0 7.46875-3.34375 7.46875-7.46875v-78.9375c0-4.125-3.34375-7.46875-7.46875-7.46875zm0 0" fill="#bf161c"/><g fill="#992228"><path d="m222.863281 74.507812c-4.125 0-7.46875 3.34375-7.46875 7.472657v46.953125h14.9375v-46.953125c0-4.128907-3.34375-7.472657-7.46875-7.472657zm0 0"/><path d="m264.722656 74.507812c-4.125 0-7.472656 3.34375-7.472656 7.472657v46.953125h14.941406v-46.953125c0-4.128907-3.34375-7.472657-7.46875-7.472657zm0 0"/><path d="m306.582031 74.507812c-4.128906 0-7.472656 3.34375-7.472656 7.472657v46.953125h14.941406v-46.953125c0-4.128907-3.34375-7.472657-7.46875-7.472657zm0 0"/><path d="m348.4375 74.507812c-4.125 0-7.46875 3.34375-7.46875 7.472657v46.953125h14.941406v-46.953125c0-4.128907-3.347656-7.472657-7.472656-7.472657zm0 0"/><path d="m390.296875 74.507812c-4.125 0-7.472656 3.34375-7.472656 7.472657v46.953125h14.941406v-46.953125c0-4.128907-3.34375-7.472657-7.46875-7.472657zm0 0"/><path d="m432.15625 74.507812c-4.128906 0-7.472656 3.34375-7.472656 7.472657v46.953125h14.941406v-46.953125c0-4.128907-3.34375-7.472657-7.46875-7.472657zm0 0"/></g><path d="m111.378906 452.007812h-81.46875c-16.242187 0-29.410156-13.167968-29.410156-29.410156 0-16.242187 13.167969-29.410156 29.410156-29.410156h81.46875c16.246094 0 29.410156 13.167969 29.410156 29.410156 0 16.242188-13.164062 29.410156-29.410156 29.410156zm0 0" fill="#ff9522"/><path d="m111.378906 423.046875h-81.46875c-10.976562 0-20.542968-6.019531-25.59375-14.929687-2.425781 4.273437-3.816406 9.210937-3.816406 14.480468 0 16.242188 13.167969 29.410156 29.410156 29.410156h81.46875c16.246094 0 29.410156-13.167968 29.410156-29.410156 0-5.269531-1.390624-10.207031-3.8125-14.480468-5.054687 8.910156-14.621093 14.929687-25.597656 14.929687zm0 0" fill="#dd7917"/><path d="m62.992188 393.183594h16.089843v58.824218h-16.089843zm0 0" fill="#dd7917"/><path d="m145.050781 510.828125h-81.46875c-16.246093 0-29.410156-13.167969-29.410156-29.410156 0-16.242188 13.164063-29.410157 29.410156-29.410157h81.46875c16.242188 0 29.410157 13.167969 29.410157 29.410157 0 16.242187-13.167969 29.410156-29.410157 29.410156zm0 0" fill="#ff9522"/><path d="m145.050781 481.867188h-81.46875c-10.980469 0-20.542969-6.015626-25.597656-14.929688-2.421875 4.277344-3.8125 9.214844-3.8125 14.480469 0 16.242187 13.164063 29.410156 29.410156 29.410156h81.46875c16.242188 0 29.410157-13.167969 29.410157-29.410156 0-5.265625-1.390626-10.203125-3.816407-14.480469-5.050781 8.914062-14.617187 14.929688-25.59375 14.929688zm0 0" fill="#dd7917"/><path d="m96.664062 452.007812h16.085938v58.820313h-16.085938zm0 0" fill="#dd7917"/><path d="m160.96875 393.183594h-81.46875c-16.246094 0-29.410156-13.164063-29.410156-29.410156 0-16.242188 13.164062-29.410157 29.410156-29.410157h81.46875c16.242188 0 29.410156 13.167969 29.410156 29.410157 0 16.246093-13.167968 29.410156-29.410156 29.410156zm0 0" fill="#ff9522"/><path d="m160.96875 364.226562h-81.46875c-10.976562 0-20.542969-6.019531-25.597656-14.929687-2.421875 4.273437-3.8125 9.210937-3.8125 14.476563 0 16.246093 13.164062 29.410156 29.410156 29.410156h81.46875c16.242188 0 29.410156-13.164063 29.410156-29.410156 0-5.265626-1.390625-10.203126-3.816406-14.476563-5.050781 8.910156-14.617188 14.929687-25.59375 14.929687zm0 0" fill="#dd7917"/><path d="m112.582031 334.363281h16.085938v58.820313h-16.085938zm0 0" fill="#dd7917"/><path d="m206.476562 501-57.605468-57.605469c-11.488282-11.484375-11.488282-30.109375 0-41.59375 11.484375-11.484375 30.105468-11.484375 41.589844 0l57.609374 57.609375c11.484376 11.484375 11.484376 30.105469 0 41.589844-11.488281 11.484375-30.109374 11.484375-41.59375 0zm0 0" fill="#ff9522"/><path d="m226.953125 480.523438-57.605469-57.609376c-7.761718-7.761718-10.273437-18.78125-7.542968-28.65625-4.738282 1.308594-9.210938 3.816407-12.9375 7.542969-11.484376 11.484375-11.484376 30.105469 0 41.589844l57.609374 57.609375c11.484376 11.484375 30.105469 11.484375 41.589844 0 3.726563-3.722656 6.234375-8.199219 7.542969-12.9375-9.875 2.730469-20.894531.222656-28.65625-7.539062zm0 0" fill="#dd7917"/><path d="m172.253906 466.785156 41.59375-41.59375 11.375 11.378906-41.589844 41.589844zm0 0" fill="#dd7917"/></svg>