<?xml version="1.0" encoding="iso-8859-1"?>
<!-- Generator: Adobe Illustrator 19.0.0, SVG Export Plug-In . SVG Version: 6.00 Build 0)  -->
<svg version="1.1" id="Capa_1" xmlns="http://www.w3.org/2000/svg" xmlns:xlink="http://www.w3.org/1999/xlink" x="0px" y="0px"
	 viewBox="0 0 429.294 429.294" style="enable-background:new 0 0 429.294 429.294;" xml:space="preserve">
<g>
	<g id="Guides_For_Artboard_32_">
	</g>
	<g id="Artwork_31_">
	</g>
	<g id="Layer_2_31_">
		<g>
			<path style="fill:#F3DBBD;" d="M289.369,318.437l-67.365-67.365l-93.274,93.274l67.365,67.365l0.043-0.043
				c25.866,24.045,66.326,23.494,91.504-1.684s25.729-65.638,1.684-91.503L289.369,318.437z"/>
			<path style="fill:#E74424;" d="M154.639,183.706l-0.043,0.043c-25.866-24.045-66.326-23.494-91.504,1.684
				c-25.178,25.177-25.729,65.638-1.684,91.504l-0.043,0.043l67.366,67.365l93.274-93.274L154.639,183.706z"/>
			<path style="fill:#F3DBBD;" d="M233.199,17.583l-0.043,0.043C207.29-6.419,166.83-5.868,141.652,19.31
				s-25.729,65.638-1.684,91.504l-0.043,0.043l67.365,67.365l93.274-93.275L233.199,17.583z"/>
			<path style="fill:#E74424;" d="M367.886,152.356l0.044-0.044l-67.366-67.365l-93.274,93.275l67.365,67.366l0.043-0.044
				c25.866,24.045,66.326,23.494,91.504-1.684C391.38,218.682,391.931,178.222,367.886,152.356z"/>
		</g>
	</g>
</g>
<g>
</g>
<g>
</g>
<g>
</g>
<g>
</g>
<g>
</g>
<g>
</g>
<g>
</g>
<g>
</g>
<g>
</g>
<g>
</g>
<g>
</g>
<g>
</g>
<g>
</g>
<g>
</g>
<g>
</g>
</svg>
